<svg xmlns="http://www.w3.org/2000/svg" width="22" height="26.5" viewBox="0 0 22 26.5">
  <g id="Group_1620" data-name="Group 1620" transform="translate(-1559 -47)">
    <g id="Group" transform="translate(1566.5 69)" opacity="0.64">
      <path id="Vector" d="M0,.5a.5.5,0,1,1,1,0,2.5,2.5,0,1,0,5,0,.5.5,0,1,1,1,0,3.5,3.5,0,1,1-7,0Z" fill="#a2a2c2" stroke="#494e71" stroke-width="1"/>
    </g>
    <g id="Group-2" data-name="Group" transform="translate(1559.5 50)" opacity="0.66">
      <path id="Vector-2" data-name="Vector" d="M2,18c-.827,0-2-.673-2-1.5,0-.439.691-.854,1.024-1.14a.514.514,0,0,1,.067-.048A6.974,6.974,0,0,0,3.5,10.04V7a7.008,7.008,0,0,1,7-7,1.39,1.39,0,0,1,.257.019A.5.5,0,1,1,10.563,1,6.02,6.02,0,0,0,4.5,7v3.04a7.973,7.973,0,0,1-2.815,6.081.461.461,0,0,1-.05.037A.5.5,0,0,0,2,17H19a.5.5,0,0,0,.363-.843.546.546,0,0,1-.048-.036A7.973,7.973,0,0,1,16.5,10.04V8.97a.5.5,0,0,1,1,0v1.07a6.974,6.974,0,0,0,2.411,5.274.435.435,0,0,1,.064.046c.334.286,1.025.7,1.025,1.14,0,.827-1.173,1.5-2,1.5Z" fill="#a2a2c2" stroke="#494e71" stroke-width="1"/>
    </g>
    <circle id="Ellipse_3" data-name="Ellipse 3" cx="4" cy="4" r="4" transform="translate(1573 47)" fill="#ff808b"/>
  </g>
</svg>
