<svg id="calendar" xmlns="http://www.w3.org/2000/svg" width="38.5" height="38.5" viewBox="0 0 38.5 38.5">
  <g id="Group_1580" data-name="Group 1580">
    <g id="Group_1579" data-name="Group 1579">
      <path id="Path_3460" data-name="Path 3460" d="M279,283.542a3.011,3.011,0,0,0,3.008,3.008h3.534a3.011,3.011,0,0,0,3.008-3.008v-3.534A3.011,3.011,0,0,0,285.542,277h-3.534A3.011,3.011,0,0,0,279,280.008Zm3.008-3.534h3.534l0,3.534h-3.536Z" transform="translate(-258.021 -256.171)" fill="#a2a2c2"/>
      <circle id="Ellipse_241" data-name="Ellipse 241" cx="1.5" cy="1.5" r="1.5" transform="translate(28 14.5)" fill="#a2a2c2"/>
      <circle id="Ellipse_242" data-name="Ellipse 242" cx="1.5" cy="1.5" r="1.5" transform="translate(21 14.5)" fill="#a2a2c2"/>
      <path id="Path_3461" data-name="Path 3461" d="M37,26.469a1.5,1.5,0,0,0,1.5-1.5V9.023a6.022,6.022,0,0,0-6.016-6.016H30.529V1.5a1.5,1.5,0,0,0-3.008,0v1.5H20.679V1.5a1.5,1.5,0,0,0-3.008,0v1.5H10.9V1.5A1.5,1.5,0,0,0,7.9,1.5v1.5H6.016A6.022,6.022,0,0,0,0,9.023V32.484A6.022,6.022,0,0,0,6.016,38.5H32.484A6.022,6.022,0,0,0,38.5,32.484a1.5,1.5,0,0,0-3.008,0,3.011,3.011,0,0,1-3.008,3.008H6.016a3.011,3.011,0,0,1-3.008-3.008V9.023A3.011,3.011,0,0,1,6.016,6.016H7.9v1.5a1.5,1.5,0,0,0,3.008,0v-1.5h6.768v1.5a1.5,1.5,0,0,0,3.008,0v-1.5h6.843v1.5a1.5,1.5,0,0,0,3.008,0v-1.5h1.955a3.011,3.011,0,0,1,3.008,3.008V24.965A1.5,1.5,0,0,0,37,26.469Z" fill="#a2a2c2"/>
      <circle id="Ellipse_243" data-name="Ellipse 243" cx="1.5" cy="1.5" r="1.5" transform="translate(8 27.5)" fill="#a2a2c2"/>
      <circle id="Ellipse_244" data-name="Ellipse 244" cx="1.5" cy="1.5" r="1.5" transform="translate(8 14.5)" fill="#a2a2c2"/>
      <circle id="Ellipse_245" data-name="Ellipse 245" cx="1.5" cy="1.5" r="1.5" transform="translate(8 20.5)" fill="#a2a2c2"/>
      <circle id="Ellipse_246" data-name="Ellipse 246" cx="1.5" cy="1.5" r="1.5" transform="translate(14 20.5)" fill="#a2a2c2"/>
      <circle id="Ellipse_247" data-name="Ellipse 247" cx="1.5" cy="1.5" r="1.5" transform="translate(14 14.5)" fill="#a2a2c2"/>
      <circle id="Ellipse_248" data-name="Ellipse 248" cx="1.5" cy="1.5" r="1.5" transform="translate(14 27.5)" fill="#a2a2c2"/>
    </g>
  </g>
</svg>
