<svg id="Group_1557" data-name="Group 1557" xmlns="http://www.w3.org/2000/svg" xmlns:xlink="http://www.w3.org/1999/xlink" width="29" height="29" viewBox="0 0 29 29">
  <defs>
    <clipPath id="clip-path">
      <rect id="Rectangle_29" data-name="Rectangle 29" width="29" height="29" fill="#fff" stroke="#fff" stroke-width="0.5"/>
    </clipPath>
  </defs>
  <g id="Group_2" data-name="Group 2" transform="translate(0 0)">
    <g id="Group_1" data-name="Group 1" clip-path="url(#clip-path)">
      <path id="Path_1" data-name="Path 1" d="M44.1,57.657A11.958,11.958,0,0,1,35.408,53.9a13.2,13.2,0,0,1-2.243-14.94.862.862,0,0,1,1.183-.4.935.935,0,0,1,.379,1.234A11.316,11.316,0,0,0,36.65,52.6a10.229,10.229,0,0,0,14.9,0,11.335,11.335,0,0,0,0-15.55,10.229,10.229,0,0,0-14.9,0,.852.852,0,0,1-1.242,0,.944.944,0,0,1,0-1.3,11.933,11.933,0,0,1,17.386,0,13.224,13.224,0,0,1,0,18.141A11.956,11.956,0,0,1,44.1,57.657Z" transform="translate(-30.051 -30.742)" fill="#fff" stroke="#fff" stroke-width="0.5"/>
    </g>
  </g>
  <g id="Group_4" data-name="Group 4" transform="translate(0 0)">
    <g id="Group_3" data-name="Group 3" clip-path="url(#clip-path)">
      <path id="Path_2" data-name="Path 2" d="M199.206,146.574a26.034,26.034,0,0,0-4.919,2.541,1.891,1.891,0,0,0,0,2.591,1.745,1.745,0,0,0,2.484,0A28.149,28.149,0,0,0,199.206,146.574Zm-3.678,7.5A3.419,3.419,0,0,1,193.043,153a3.782,3.782,0,0,1,0-5.183c1.1-1.152,6.386-3.335,7.434-3.761a.851.851,0,0,1,.94.206.946.946,0,0,1,.2.98c-.408,1.093-2.5,6.606-3.6,7.757A3.412,3.412,0,0,1,195.528,154.076Z" transform="translate(-181.477 -136.324)" fill="#fff" stroke="#fff" stroke-width="0.5"/>
    </g>
  </g>
</svg>
