<svg xmlns="http://www.w3.org/2000/svg" width="25" height="23" viewBox="0 0 25 23">
  <g id="Group_1559" data-name="Group 1559" transform="translate(-0.185 0.111)">
    <g id="Rectangle_1938" data-name="Rectangle 1938" transform="translate(0.185 -0.111)" fill="none" stroke="#df8597" stroke-width="2">
      <rect width="25" height="23" rx="2" stroke="none"/>
      <rect x="1" y="1" width="23" height="21" rx="1" fill="none"/>
    </g>
    <g id="Group_1473" data-name="Group 1473" transform="translate(8.714 11.111)">
      <g id="rupee-indian" transform="translate(0 0)">
        <path id="Path_3408" data-name="Path 3408" d="M77.229,1.587a.155.155,0,0,0-.114-.045h-.851a1.722,1.722,0,0,0-.318-.716H77.1a.153.153,0,0,0,.159-.159V.159A.153.153,0,0,0,77.1,0H72.965a.153.153,0,0,0-.159.159V.821a.161.161,0,0,0,.159.159h.721q1.05,0,1.333.562H72.965a.153.153,0,0,0-.159.159v.507a.153.153,0,0,0,.159.159h2.124a.972.972,0,0,1-.51.622,2.245,2.245,0,0,1-1.057.214h-.557a.161.161,0,0,0-.159.159v.632a.149.149,0,0,0,.045.109q.955,1.015,2.477,2.841a.147.147,0,0,0,.124.06h.97a.144.144,0,0,0,.144-.09.136.136,0,0,0-.02-.169q-1.452-1.781-2.283-2.666a2.523,2.523,0,0,0,1.373-.547,1.86,1.86,0,0,0,.642-1.164h.836a.153.153,0,0,0,.159-.159V1.7A.155.155,0,0,0,77.229,1.587Z" transform="translate(-72.806)" fill="#df8597"/>
      </g>
    </g>
    <g id="Ellipse_232" data-name="Ellipse 232" transform="translate(5.185 8.889)" fill="none" stroke="#df8597" stroke-width="2">
      <ellipse cx="5.5" cy="6" rx="5.5" ry="6" stroke="none"/>
      <ellipse cx="5.5" cy="6" rx="4.5" ry="5" fill="none"/>
    </g>
    <path id="Path_3423" data-name="Path 3423" d="M40.743,48.2l2.716,1.9a.406.406,0,0,0,.5-.033l4.946-4.6L56.035,50.1a.405.405,0,0,0,.507-.054l5.981-6.185v1.8a.387.387,0,0,0,.771,0V42.923s0-.006,0-.009a.324.324,0,0,0,0-.039.312.312,0,0,0-.005-.032.335.335,0,0,0-.011-.034.341.341,0,0,0-.012-.033c-.005-.01-.011-.02-.017-.03s-.012-.021-.02-.031-.014-.016-.022-.025a.375.375,0,0,0-.028-.029l-.006-.007-.02-.014a.4.4,0,0,0-.034-.023l-.032-.016-.035-.015-.036-.011-.036-.008-.041,0-.025,0H59.956a.361.361,0,1,0,0,.721H62.04L56.2,49.325l-3.466-2.258-3.647-2.376a.406.406,0,0,0-.493.04l-2.907,2.705-2.032,1.891-2.69-1.878a.407.407,0,0,0-.474.009Z" transform="translate(-39.527 -40.45)" fill="#df8597" stroke="#df8597" stroke-width="1"/>
  </g>
</svg>
