<svg id="Group_503" data-name="Group 503" xmlns="http://www.w3.org/2000/svg" width="25.743" height="25.743" viewBox="0 0 25.743 25.743">
  <path id="Path_957" data-name="Path 957" d="M247.731,476.163h0a12.872,12.872,0,0,1-12.872-12.871h0a12.872,12.872,0,0,1,12.872-12.871h0A12.872,12.872,0,0,1,260.6,463.291h0A12.872,12.872,0,0,1,247.731,476.163Z" transform="translate(-234.859 -450.42)" fill="#3e5c9a"/>
  <path id="Path_958" data-name="Path 958" d="M246.98,471.736h3.133v-7.847H252.3l.233-2.627h-2.419v-1.5c0-.619.125-.864.724-.864h1.7v-2.727h-2.17c-2.331,0-3.382,1.027-3.382,2.992v2.095h-1.63v2.66h1.63Z" transform="translate(-236.069 -451.084)" fill="#fff"/>
</svg>
