<svg xmlns="http://www.w3.org/2000/svg" width="26.733" height="26.733" viewBox="0 0 26.733 26.733">
  <g id="icons8-google" transform="translate(-4 -4)">
    <path id="Path_2284" data-name="Path 2284" d="M30.473,14.749H29.4v-.055H17.367V20.04h7.554a8.026,8.026,0,1,1-2.234-8.662L26.468,7.6a13.353,13.353,0,1,0,4.265,9.77A13.458,13.458,0,0,0,30.473,14.749Z" fill="#ffc107"/>
    <path id="Path_2285" data-name="Path 2285" d="M6.306,11.145,10.7,14.366a8,8,0,0,1,12.754-2.988L27.233,7.6A13.34,13.34,0,0,0,6.306,11.145Z" transform="translate(-0.765)" fill="#ff3d00"/>
    <path id="Path_2286" data-name="Path 2286" d="M18.095,38.711a13.3,13.3,0,0,0,8.962-3.47l-4.137-3.5a8,8,0,0,1-12.366-3.687L6.2,31.412A13.356,13.356,0,0,0,18.095,38.711Z" transform="translate(-0.728 -7.978)" fill="#4caf50"/>
    <path id="Path_2287" data-name="Path 2287" d="M37.107,20.055H36.03V20H24v5.347h7.554a8.047,8.047,0,0,1-2.731,3.723h0l4.137,3.5a12.93,12.93,0,0,0,4.4-9.9A13.458,13.458,0,0,0,37.107,20.055Z" transform="translate(-6.633 -5.307)" fill="#1976d2"/>
  </g>
</svg>
