<svg id="Group_508" data-name="Group 508" xmlns="http://www.w3.org/2000/svg" xmlns:xlink="http://www.w3.org/1999/xlink" width="25.743" height="25.743" viewBox="0 0 25.743 25.743">
  <defs>
    <radialGradient id="radial-gradient" cx="-0.025" cy="1.003" r="1.849" gradientTransform="translate(0)" gradientUnits="objectBoundingBox">
      <stop offset="0" stop-color="#f5ec53"/>
      <stop offset="0.241" stop-color="#e48244"/>
      <stop offset="0.397" stop-color="#d05667"/>
      <stop offset="0.489" stop-color="#c84278"/>
      <stop offset="1" stop-color="#192cfa"/>
    </radialGradient>
  </defs>
  <path id="Path_962" data-name="Path 962" d="M330.981,477.322h0A12.871,12.871,0,0,1,318.11,464.45h0a12.871,12.871,0,0,1,12.871-12.871h0a12.871,12.871,0,0,1,12.871,12.871h0A12.871,12.871,0,0,1,330.981,477.322Z" transform="translate(-318.11 -451.579)" fill="url(#radial-gradient)"/>
  <g id="Group_507" data-name="Group 507" transform="translate(5.814 5.814)">
    <path id="Path_963" data-name="Path 963" d="M331.74,459.422c1.884,0,2.108.008,2.852.042a3.868,3.868,0,0,1,1.31.243,2.327,2.327,0,0,1,1.339,1.339,3.869,3.869,0,0,1,.243,1.31c.034.744.042.968.042,2.852s-.008,2.108-.042,2.852a3.869,3.869,0,0,1-.243,1.31,2.333,2.333,0,0,1-1.339,1.339,3.87,3.87,0,0,1-1.31.243c-.744.034-.967.041-2.852.041s-2.107-.007-2.852-.041a3.877,3.877,0,0,1-1.31-.243,2.34,2.34,0,0,1-1.339-1.339,3.921,3.921,0,0,1-.243-1.31c-.034-.744-.041-.968-.041-2.852s.007-2.108.041-2.852a3.921,3.921,0,0,1,.243-1.31,2.334,2.334,0,0,1,1.339-1.339,3.875,3.875,0,0,1,1.31-.243c.745-.034.968-.042,2.852-.042m0-1.271c-1.916,0-2.157.008-2.91.042a5.2,5.2,0,0,0-1.714.328,3.608,3.608,0,0,0-2.064,2.064,5.2,5.2,0,0,0-.328,1.714c-.034.753-.043.993-.043,2.91s.008,2.157.043,2.91a5.2,5.2,0,0,0,.328,1.713,3.607,3.607,0,0,0,2.064,2.064,5.2,5.2,0,0,0,1.714.328c.753.035.993.042,2.91.042s2.158-.008,2.91-.042a5.186,5.186,0,0,0,1.713-.328,3.606,3.606,0,0,0,2.064-2.064,5.2,5.2,0,0,0,.328-1.713c.035-.753.042-.993.042-2.91s-.008-2.157-.042-2.91a5.2,5.2,0,0,0-.328-1.714,3.607,3.607,0,0,0-2.064-2.064,5.184,5.184,0,0,0-1.713-.328c-.753-.034-.993-.042-2.91-.042" transform="translate(-324.682 -458.151)" fill="#fff"/>
    <path id="Path_964" data-name="Path 964" d="M332.187,462.032a3.624,3.624,0,1,0,3.624,3.624,3.625,3.625,0,0,0-3.624-3.624m0,5.977a2.352,2.352,0,1,1,2.352-2.352,2.352,2.352,0,0,1-2.352,2.352" transform="translate(-325.13 -458.599)" fill="#fff"/>
    <path id="Path_965" data-name="Path 965" d="M337.655,461.76a.847.847,0,1,1-.847-.847.847.847,0,0,1,.847.847" transform="translate(-325.983 -458.47)" fill="#fff"/>
  </g>
</svg>
