<svg xmlns="http://www.w3.org/2000/svg" width="48.501" height="48.503" viewBox="0 0 48.501 48.503">
  <g id="Page-1" transform="translate(0 0.003)">
    <g id="_004---Investing" data-name="004---Investing" transform="translate(0 -0.003)">
      <path id="Path" d="M43.233,41.233A1.617,1.617,0,0,1,44.85,42.85a.808.808,0,1,0,1.617,0,3.233,3.233,0,0,0-2.425-3.119v-.923a.808.808,0,1,0-1.617,0v.923a3.227,3.227,0,0,0,.808,6.352A1.617,1.617,0,1,1,41.617,47.7.808.808,0,1,0,40,47.7a3.233,3.233,0,0,0,2.425,3.119v.923a.808.808,0,1,0,1.617,0v-.923a3.227,3.227,0,0,0-.808-6.352,1.617,1.617,0,0,1,0-3.233Z" transform="translate(-7.666 -8.089)" fill="#a2a2c2" fill-rule="evenodd"/>
      <path id="Shape" d="M42.842,25.421a3.216,3.216,0,0,0-.428-1.788H42.7a3.355,3.355,0,0,0,3.371-3.062,3.208,3.208,0,0,0-.543-1.972,3.249,3.249,0,0,0,1.276-.825,3.209,3.209,0,0,0,.884-2.4A3.3,3.3,0,0,0,45.51,12.53a3.209,3.209,0,0,0,.566-2A3.355,3.355,0,0,0,42.7,7.466h-3.43l1.733-3.5a2.042,2.042,0,0,0-.218-2.178,2.016,2.016,0,0,0-2.034-.737,15.307,15.307,0,0,1-6.378,0,1.995,1.995,0,0,0-2.4,1.569H29.5a5.629,5.629,0,0,0-4.007,1.66l-2,2a4.023,4.023,0,0,1-2.864,1.186H2.425A2.425,2.425,0,0,0,0,9.891V22.016a2.425,2.425,0,0,0,2.425,2.425H20.548a6.431,6.431,0,0,1,3.428.985L26.9,27.251a8.2,8.2,0,0,0,.753.4c-2.645,2.82-5.018,6.082-5.018,11.029,0,3.252,1.26,10.816,12.934,10.816S48.5,41.936,48.5,38.684c0-5.645-3.131-9.066-5.99-12.052a3.057,3.057,0,0,0,.331-1.211ZM31.619,2.778a.4.4,0,0,1,.419-.15,16.92,16.92,0,0,0,7.059,0,.4.4,0,0,1,.418.15.428.428,0,0,1,.044.467L37.471,7.466H33.664L31.576,3.245a.428.428,0,0,1,.044-.467ZM24.835,24.057a8.037,8.037,0,0,0-4.287-1.232H2.425a.808.808,0,0,1-.808-.808V9.891a.808.808,0,0,1,.808-.808h18.2a5.628,5.628,0,0,0,4.007-1.66l2-2A4.023,4.023,0,0,1,29.5,4.233h.764l1.6,3.233H29.909a.808.808,0,1,0,0,1.617H42.7a1.719,1.719,0,0,1,1.754,1.529,1.617,1.617,0,0,1-1.617,1.7H35.567a.808.808,0,1,0,0,1.617h8.754a1.719,1.719,0,0,1,1.754,1.529,1.617,1.617,0,0,1-1.617,1.7H35.567a.808.808,0,0,0,0,1.617h7.275a1.617,1.617,0,0,1,1.617,1.7A1.719,1.719,0,0,1,42.7,22.016H35.567a.808.808,0,0,0,0,1.617h4.042a1.617,1.617,0,0,1,1.617,1.7,1.719,1.719,0,0,1-1.754,1.532H31.186a6.431,6.431,0,0,1-3.428-.985ZM35.567,47.883c-9.353,0-11.317-5-11.317-9.2,0-4.672,2.361-7.632,5.068-10.437a8.079,8.079,0,0,0,1.868.236h8.286a3.423,3.423,0,0,0,1.965-.635c2.734,2.86,5.447,5.885,5.447,10.837C46.884,42.881,44.921,47.883,35.567,47.883Z" transform="translate(0 -0.997)" fill="#a2a2c2"/>
    </g>
  </g>
</svg>
