<svg xmlns="http://www.w3.org/2000/svg" width="26.801" height="26.682" viewBox="0 0 26.801 26.682">
  <g id="Group_1567" data-name="Group 1567" transform="translate(-45.107 -457.76)">
    <g id="Group_1566" data-name="Group 1566">
      <rect id="Rectangle_1936" data-name="Rectangle 1936" width="2.082" height="7.287" transform="translate(52 476.084)" fill="#df8597"/>
      <path id="Path_3416" data-name="Path 3416" d="M229.829,80.441a1.182,1.182,0,0,0,1.734,0,1.656,1.656,0,0,0,.337-1.133,1.622,1.622,0,0,0-.329-1.113,1.223,1.223,0,0,0-1.751,0,2.022,2.022,0,0,0,.009,2.238Z" transform="translate(-172.532 382.832)" fill="#df8597"/>
      <path id="Path_3417" data-name="Path 3417" d="M164,78.893a4.31,4.31,0,0,0-.63-.029h-.423V80.1h.48a2.259,2.259,0,0,0,.692-.069.568.568,0,0,0,.274-.214.585.585,0,0,0,.1-.338.565.565,0,0,0-.139-.391A.61.61,0,0,0,164,78.893Z" transform="translate(-109.887 381.86)" fill="#df8597"/>
      <path id="Path_3418" data-name="Path 3418" d="M395.393,254.788v9.129h2.082V251.375h-2.082Z" transform="translate(-331.393 219.455)" fill="#df8597"/>
      <path id="Path_3419" data-name="Path 3419" d="M262.767,323.17v-8.854h-2.082v8.854Z" transform="translate(-204.685 160.201)" fill="#df8597"/>
      <path id="Path_3420" data-name="Path 3420" d="M350.489,323.17h2.082v-8.854h-2.082v8.854Z" transform="translate(-290.489 160.201)" fill="#df8597"/>
      <path id="Path_3421" data-name="Path 3421" d="M61.31,61.933H38.437v-.022h2.081V57.759H38.437V52.151l3.941-3.209,1.933,1.443a.274.274,0,0,0,.358-.025l3.52-3.5,5.072,3.534a.274.274,0,0,0,.361-.041l4.257-4.707v1.371a.275.275,0,1,0,.549,0V44.928s0,0,0-.007a.261.261,0,0,0,0-.029c0-.008,0-.017,0-.024s-.005-.017-.008-.026-.005-.017-.009-.025-.008-.015-.012-.023-.009-.016-.014-.024-.01-.013-.016-.019a.28.28,0,0,0-.02-.022l0,0-.014-.01L58.3,44.7l-.022-.012-.025-.012-.026-.008-.026-.006-.029,0-.018,0h-2.1a.275.275,0,1,0,0,.549h1.483l-4.158,4.6-5.062-3.527a.275.275,0,0,0-.351.031L45.9,48.364,44.449,49.8l-1.914-1.429a.275.275,0,0,0-.338.007l-3.761,3.062V45.2H50.15a.275.275,0,0,0,.2-.087l3.795-4.051a.274.274,0,0,0-.006-.381l-3.795-3.8a.274.274,0,0,0-.194-.081H38.162a.275.275,0,0,0-.275.275v7.854c0,.008,0,.016,0,.024a.417.417,0,0,0,0,.043V51.89l-1.477,1.2a.275.275,0,0,0,.347.426l1.131-.921v9.335h-1.83a.275.275,0,1,0,0,.549H61.31a.275.275,0,0,0,0-.549ZM49.873,39.048a2.653,2.653,0,0,1,0,3.3,2.03,2.03,0,0,1-1.533.594,2.052,2.052,0,0,1-1.546-.591,2.238,2.238,0,0,1-.574-1.628,2.759,2.759,0,0,1,.2-1.114,2.035,2.035,0,0,1,.406-.6,1.709,1.709,0,0,1,.563-.391,2.409,2.409,0,0,1,.939-.172A2.053,2.053,0,0,1,49.873,39.048Zm-4.19.817a1.416,1.416,0,0,1-.145.671,1.2,1.2,0,0,1-.369.428,1.281,1.281,0,0,1-.455.205,5.024,5.024,0,0,1-.91.062h-.572v1.634h-.882V38.532h1.41A5.14,5.14,0,0,1,44.8,38.6a1.144,1.144,0,0,1,.626.425A1.342,1.342,0,0,1,45.683,39.865ZM40.63,38.532h.882v4.334H40.63Z" transform="translate(9.824 421.46)" fill="#df8597" stroke="#df8597" stroke-width="1"/>
      <ellipse id="Ellipse_240" data-name="Ellipse 240" cx="5.5" cy="3" rx="5.5" ry="3" transform="translate(50 459)" fill="#df8597"/>
    </g>
    <text id="IPO" transform="translate(51 464)" fill="#fff" font-size="5" font-family="Muli-Bold, Muli" font-weight="700"><tspan x="0" y="0">IPO</tspan></text>
  </g>
</svg>
