<svg xmlns="http://www.w3.org/2000/svg" width="143" height="39.527" viewBox="0 0 143 39.527">
  <g id="Corporate-Registry" transform="translate(-0.262 -0.188)">
    <g id="Corporate-Registry---Home---banner3-Copy" transform="translate(0.262 0.188)">
      <g id="Layer1001" transform="translate(0 0)">
        <g id="Layer1002" transform="translate(0.185 32.639)">
          <path id="path4" d="M.531,5.962h.59V.458H.531Zm1.879,0h.566V3.469A1.065,1.065,0,0,1,4.015,2.3c.6,0,.944.409.944,1.14V5.962h.566V3.281A1.315,1.315,0,0,0,4.188,1.786a1.326,1.326,0,0,0-1.211.747V1.865H2.411Zm5.332.071A1.208,1.208,0,0,0,9.071,4.853V4.837c0-.621-.472-.9-1.148-1.2-.558-.236-.912-.409-.912-.755V2.864c0-.322.275-.574.708-.574a1.794,1.794,0,0,1,1.03.385l.275-.432a2.235,2.235,0,0,0-1.29-.44A1.154,1.154,0,0,0,6.46,2.919v.016c0,.637.519.9,1.172,1.179.55.228.889.417.889.779V4.9c0,.385-.315.637-.763.637a1.87,1.87,0,0,1-1.2-.5l-.3.417a2.289,2.289,0,0,0,1.478.574ZM10,7.141h.566V5.2a1.518,1.518,0,0,0,1.329.842c.834,0,1.636-.731,1.636-2.092V3.87c0-1.36-.8-2.084-1.636-2.084a1.529,1.529,0,0,0-1.329.865V1.865H10Zm1.785-1.612a1.408,1.408,0,0,1-1.242-1.573V3.878A1.416,1.416,0,0,1,11.784,2.3c.629,0,1.164.59,1.164,1.588v.063C12.948,4.955,12.429,5.529,11.784,5.529ZM14.5,1.024h.629V.355H14.5Zm.031,4.938H15.1v-4.1h-.566Zm1.777,0h.566V4.012c0-1.054.613-1.588,1.376-1.588h.032V1.81a1.446,1.446,0,0,0-1.408.959v-.9h-.566Zm4.191.087a1.853,1.853,0,0,0,1.407-.613l-.322-.362a1.441,1.441,0,0,1-1.062.472,1.336,1.336,0,0,1-1.266-1.408h2.752c.008-.071.008-.181.008-.236,0-1.235-.613-2.115-1.643-2.115-.959,0-1.691.873-1.691,2.123v.039a1.894,1.894,0,0,0,1.817,2.1ZM19.262,3.7c.055-.857.511-1.415,1.117-1.415.668,0,1.038.637,1.077,1.415Zm5.1,2.343a1.529,1.529,0,0,0,1.329-.865v.786h.566V.285h-.566V2.628a1.518,1.518,0,0,0-1.329-.841c-.834,0-1.636.731-1.636,2.092v.079C22.73,5.325,23.532,6.041,24.365,6.041Zm.118-.511c-.637,0-1.172-.59-1.172-1.588V3.878c0-1.007.519-1.581,1.172-1.581s1.235.613,1.235,1.581v.071C25.718,4.916,25.128,5.529,24.483,5.529Zm15.931.433H41V4.02h1a1.8,1.8,0,0,0,2.005-1.8V2.2A1.72,1.72,0,0,0,42.074.458H40.414ZM41,3.485V1h1.038c.833,0,1.368.425,1.368,1.227v.008a1.24,1.24,0,0,1-1.392,1.25Zm4.852,2.563a1.414,1.414,0,0,0,1.25-.684v.6h.558V3.328a1.521,1.521,0,0,0-.393-1.109,1.561,1.561,0,0,0-1.148-.409,2.821,2.821,0,0,0-1.29.33l.181.464a2.232,2.232,0,0,1,1.046-.275.933.933,0,0,1,1.046,1.014v.244a3.368,3.368,0,0,0-1.054-.165c-.9,0-1.51.48-1.51,1.321v.031a1.253,1.253,0,0,0,1.313,1.274Zm.126-.472a.82.82,0,0,1-.873-.834V4.72c0-.519.362-.857,1.014-.857a2.89,2.89,0,0,1,.991.165v.511a1.066,1.066,0,0,1-1.132,1.038Zm3.893.456A1.208,1.208,0,0,0,51.2,4.853V4.837c0-.621-.472-.9-1.148-1.2-.558-.236-.912-.409-.912-.755V2.864c0-.322.275-.574.708-.574a1.794,1.794,0,0,1,1.03.385l.275-.432a2.235,2.235,0,0,0-1.29-.44,1.154,1.154,0,0,0-1.274,1.116v.016c0,.637.519.9,1.172,1.179.55.228.889.417.889.779V4.9c0,.385-.315.637-.763.637a1.87,1.87,0,0,1-1.2-.5l-.3.417a2.289,2.289,0,0,0,1.478.574Zm3.311,0a1.208,1.208,0,0,0,1.329-1.179V4.837c0-.621-.472-.9-1.148-1.2-.558-.236-.912-.409-.912-.755V2.864c0-.322.275-.574.708-.574a1.794,1.794,0,0,1,1.03.385l.275-.432a2.235,2.235,0,0,0-1.29-.44A1.154,1.154,0,0,0,51.9,2.919v.016c0,.637.519.9,1.172,1.179.55.228.888.417.888.779V4.9c0,.385-.314.637-.763.637a1.87,1.87,0,0,1-1.2-.5l-.3.417a2.289,2.289,0,0,0,1.478.574Zm2.272-5.009h.629V.355h-.629Zm.031,4.938h.566v-4.1h-.566Zm3.374.087a1.94,1.94,0,0,0,1.824-2.115V3.886a1.839,1.839,0,1,0-3.641.008v.055A1.92,1.92,0,0,0,58.862,6.048Zm.008-.511c-.7,0-1.242-.684-1.242-1.6V3.894c0-.912.511-1.6,1.235-1.6.7,0,1.25.684,1.25,1.6v.039c0,.9-.519,1.6-1.242,1.6Zm2.76.425H62.2V3.469A1.065,1.065,0,0,1,63.234,2.3c.6,0,.944.409.944,1.14V5.962h.566V3.281A1.349,1.349,0,0,0,62.2,2.534V1.865H61.63Zm4.16,0H66.5v-.81h-.708Zm3.924,0H71.27a2.537,2.537,0,0,0,2.587-2.729V3.178A2.526,2.526,0,0,0,71.27.458H69.713ZM71.254,1a1.977,1.977,0,0,1,1.99,2.186v.055a1.97,1.97,0,0,1-1.99,2.178H70.3V1Zm3.633,4.962h.566V4.012c0-1.054.613-1.588,1.376-1.588h.032V1.81a1.446,1.446,0,0,0-1.407.959v-.9h-.566Zm2.776-4.938h.629V.355h-.629Zm.032,4.938h.566v-4.1h-.566Zm2.949.031h.511l1.5-4.128h-.6L80.895,5.231,79.747,1.865h-.614Zm4.223.055a1.853,1.853,0,0,0,1.407-.613l-.322-.362a1.442,1.442,0,0,1-1.062.472,1.336,1.336,0,0,1-1.266-1.408h2.752c.008-.071.008-.181.008-.236,0-1.235-.614-2.115-1.644-2.115-.959,0-1.691.873-1.691,2.123v.039a1.894,1.894,0,0,0,1.817,2.1ZM83.624,3.7c.055-.857.511-1.415,1.116-1.415.669,0,1.039.637,1.078,1.415ZM87.3,5.962h.566V3.469A1.065,1.065,0,0,1,88.9,2.3c.6,0,.943.409.943,1.14V5.962h.566V3.281a1.349,1.349,0,0,0-2.548-.747V1.865H87.3Zm18.393,0h.59V1.008h1.549V.458h-3.68v.55h1.541Zm3.861.087a1.855,1.855,0,0,0,1.408-.613l-.323-.362a1.441,1.441,0,0,1-1.062.472,1.336,1.336,0,0,1-1.266-1.408h2.752c.008-.071.008-.181.008-.236,0-1.235-.613-2.115-1.643-2.115-.96,0-1.691.873-1.691,2.123v.039a1.894,1.894,0,0,0,1.816,2.1ZM108.307,3.7c.055-.857.511-1.415,1.117-1.415.668,0,1.038.637,1.077,1.415Zm5.261,2.351a1.686,1.686,0,0,0,1.321-.613l-.331-.377a1.316,1.316,0,0,1-.959.472c-.692,0-1.258-.621-1.258-1.588V3.9c0-.951.55-1.6,1.234-1.6a1.323,1.323,0,0,1,.96.464l.338-.425a1.737,1.737,0,0,0-1.29-.558A1.932,1.932,0,0,0,111.759,3.9v.055a1.894,1.894,0,0,0,1.809,2.092Zm2.162-.087h.566V3.469A1.065,1.065,0,0,1,117.334,2.3c.6,0,.944.409.944,1.14V5.962h.566V3.281a1.349,1.349,0,0,0-2.548-.747V.285h-.566Zm4.223,0h.566V3.469A1.065,1.065,0,0,1,121.557,2.3c.6,0,.944.409.944,1.14V5.962h.566V3.281a1.349,1.349,0,0,0-2.548-.747V1.865h-.566Zm5.819.087A1.939,1.939,0,0,0,127.6,3.933V3.886a1.839,1.839,0,1,0-3.641.008v.055a1.92,1.92,0,0,0,1.817,2.1Zm.008-.511c-.7,0-1.242-.684-1.242-1.6V3.894c0-.912.511-1.6,1.235-1.6.7,0,1.25.684,1.25,1.6v.039C127.022,4.845,126.5,5.537,125.779,5.537Zm2.807.425h.566V.285h-.566Zm3.374.087a1.939,1.939,0,0,0,1.824-2.115V3.886a1.839,1.839,0,1,0-3.641.008v.055a1.92,1.92,0,0,0,1.817,2.1Zm.008-.511c-.7,0-1.242-.684-1.242-1.6V3.894c0-.912.511-1.6,1.235-1.6.7,0,1.25.684,1.25,1.6v.039c0,.9-.519,1.6-1.242,1.6Zm4.278,1.62a1.858,1.858,0,0,0,1.36-.472,1.71,1.71,0,0,0,.448-1.266V1.865h-.566V2.6a1.555,1.555,0,0,0-1.345-.81,1.736,1.736,0,0,0-1.62,1.934v.031a1.723,1.723,0,0,0,1.612,1.927,1.559,1.559,0,0,0,1.352-.841v.6a1.121,1.121,0,0,1-1.25,1.227,2.441,2.441,0,0,1-1.321-.4l-.228.456a2.9,2.9,0,0,0,1.557.44Zm.024-1.989c-.637,0-1.164-.543-1.164-1.431V3.721c0-.9.519-1.423,1.164-1.423A1.314,1.314,0,0,1,137.5,3.721v.024A1.319,1.319,0,0,1,136.27,5.168Zm4.442.071-1.227-3.373h-.613l1.573,4.1c-.2.527-.4.7-.708.7a1.087,1.087,0,0,1-.535-.149l-.173.472a1.541,1.541,0,0,0,.739.189c.55,0,.9-.291,1.2-1.14l1.454-4.168h-.605Zm1.927.723h.708v-.81h-.708Z" transform="translate(-0.531 -0.285)" fill="#283d7c" fill-rule="evenodd"/>
          <path id="path6" d="M42.792,6.041h1.9c1.156,0,1.919-.55,1.919-1.486V4.531a1.35,1.35,0,0,0-1.14-1.321,1.31,1.31,0,0,0,.9-1.282V1.913a1.245,1.245,0,0,0-.362-.9,1.878,1.878,0,0,0-1.36-.472H42.792ZM45.78,2.007c0,.637-.48,1-1.211,1H43.382V1.071h1.242c.731,0,1.156.354,1.156.92ZM46.016,4.5v.016c0,.629-.5.991-1.3.991H43.382V3.525h1.266c.889,0,1.368.362,1.368.975Zm3,.818L47.785,1.944h-.613l1.573,4.1c-.2.527-.4.7-.708.7a1.087,1.087,0,0,1-.535-.149l-.173.472a1.542,1.542,0,0,0,.739.189c.55,0,.9-.291,1.2-1.14l1.455-4.168h-.605Zm57.875.723h1.9c1.156,0,1.919-.55,1.919-1.486V4.531a1.35,1.35,0,0,0-1.141-1.321,1.31,1.31,0,0,0,.9-1.282V1.913a1.245,1.245,0,0,0-.362-.9,1.879,1.879,0,0,0-1.36-.472h-1.864Zm2.988-4.034c0,.637-.48,1-1.211,1h-1.187V1.071h1.242c.732,0,1.156.354,1.156.92Zm.236,2.493v.016c0,.629-.5.991-1.3.991h-1.337V3.525h1.266c.888,0,1.368.362,1.368.975Zm3,.818L111.88,1.944h-.614l1.573,4.1c-.2.527-.4.7-.708.7a1.087,1.087,0,0,1-.535-.149l-.173.472a1.544,1.544,0,0,0,.739.189c.55,0,.9-.291,1.2-1.14l1.455-4.168h-.605Z" transform="translate(-13.784 -0.364)" fill="#c42a33" fill-rule="evenodd"/>
        </g>
        <g id="Layer1003" transform="translate(0 0)">
          <path id="path9" d="M.262,7.957V23.094H6.649V3.289L.262.188V7.957Z" transform="translate(-0.262 -0.188)" fill="#283d7c" fill-rule="evenodd"/>
          <path id="path11" d="M11.5,9.787,17.09,16.45l4.237-8.076H12.239Zm2.15,13.235h0L9.567,18.139v7.522h2.7Z" transform="translate(-3.18 -2.755)" fill="#283d7c" fill-rule="evenodd"/>
          <path id="path13" d="M18.774,18.26l-3.838,7.37,2.7,3.194H27.678Z" transform="translate(-4.863 -5.855)" fill="#283d7c" fill-rule="evenodd"/>
          <path id="path15" d="M5.144,20.005l-4.882,9.3H6.649V21.787Z" transform="translate(-0.262 -6.403)" fill="#e5435c" fill-rule="evenodd"/>
          <path id="path17" d="M12.964,23.3l3.869-7.37L11.213,9.269,8.879,13.722l-1.5,2.917Z" transform="translate(-2.493 -3.036)" fill="#bd2932" fill-rule="evenodd"/>
          <path id="path19" d="M49.954,9.5V7.772H39.217V9.5Z" transform="translate(-12.478 -2.566)" fill="#bd2932" fill-rule="evenodd"/>
          <path id="path21" d="M146.651,9.508V7.781H135.8V9.508Z" transform="translate(-42.767 -2.569)" fill="#bd2932" fill-rule="evenodd"/>
          <path id="path23" d="M41.1,15.827h7.9V17.58H41.1v7.828H39.2v-9.58ZM57.04,7.618h1.906V25.408H57.04Zm10.014,0h1.8l9.3,14v-14H80.04V25.408H78.435L68.884,11.074V25.408h-1.83ZM91.808,9.4H86.826V7.618H98.72V9.4H93.714V25.408H91.808Zm15.6,6.176h8.031V17.3h-8.031v6.353h9.072v1.754H105.507V15.592Zm23.152,10.089h0a7.066,7.066,0,0,1-5.476-2.49,8.785,8.785,0,0,1-1.614-2.859,11.094,11.094,0,0,1-.584-3.7v-.153a10.9,10.9,0,0,1,.6-3.685,8.954,8.954,0,0,1,1.638-2.885,7.2,7.2,0,0,1,5.566-2.528,7.115,7.115,0,0,1,3.1.61A9.3,9.3,0,0,1,136.1,9.55L134.936,11a7.617,7.617,0,0,0-1.868-1.335,5.257,5.257,0,0,0-2.4-.521,5.037,5.037,0,0,0-2.286.534,5.492,5.492,0,0,0-1.843,1.5,7.317,7.317,0,0,0-1.22,2.313,9.353,9.353,0,0,0-.445,2.948v.1a9.527,9.527,0,0,0,.445,3,7.316,7.316,0,0,0,1.22,2.313,5.492,5.492,0,0,0,1.843,1.5,5.037,5.037,0,0,0,2.286.534,5.149,5.149,0,0,0,2.4-.534,8.818,8.818,0,0,0,1.994-1.448l1.144,1.321A9.7,9.7,0,0,1,133.729,25,7.058,7.058,0,0,1,130.565,25.661ZM142.891,7.618H144.8v7.954h8.59V7.618h1.906V25.408h-1.906V17.351H144.8v8.056h-1.906Z" transform="translate(-12.473 -2.439)" fill="#283d7c" fill-rule="evenodd"/>
        </g>
      </g>
    </g>
  </g>
</svg>
