<svg id="Group_506" data-name="Group 506" xmlns="http://www.w3.org/2000/svg" width="25.743" height="25.743" viewBox="0 0 25.743 25.743">
  <path id="Path_959" data-name="Path 959" d="M289.356,477.322h0a12.871,12.871,0,0,1-12.871-12.871h0a12.871,12.871,0,0,1,12.871-12.871h0a12.871,12.871,0,0,1,12.871,12.871h0A12.871,12.871,0,0,1,289.356,477.322Z" transform="translate(-276.485 -451.579)" fill="#117bb8"/>
  <g id="Group_505" data-name="Group 505" transform="translate(6.779 5.699)">
    <g id="Group_504" data-name="Group 504">
      <rect id="Rectangle_588" data-name="Rectangle 588" width="2.664" height="8.606" transform="translate(0.256 4.303)" fill="#fff"/>
      <path id="Path_960" data-name="Path 960" d="M285.723,461.2a1.588,1.588,0,1,0-1.575-1.589A1.583,1.583,0,0,0,285.723,461.2Z" transform="translate(-284.148 -458.021)" fill="#fff"/>
    </g>
    <path id="Path_961" data-name="Path 961" d="M291.929,466.939c0-1.209.557-1.93,1.623-1.93.979,0,1.45.692,1.45,1.93v4.518h2.651v-5.449c0-2.305-1.307-3.42-3.131-3.42a3,3,0,0,0-2.594,1.422v-1.16h-2.555v8.607h2.555Z" transform="translate(-284.751 -458.548)" fill="#fff"/>
  </g>
</svg>
