<svg xmlns="http://www.w3.org/2000/svg" width="22" height="17" viewBox="0 0 22 17">
  <g id="Group_1498" data-name="Group 1498" transform="translate(-1111 -219)">
    <g id="Rectangle_1932" data-name="Rectangle 1932" transform="translate(1111 219)" fill="none" stroke="#fff" stroke-width="1">
      <rect width="22" height="17" rx="1" stroke="none"/>
      <rect x="0.5" y="0.5" width="21" height="16" rx="0.5" fill="none"/>
    </g>
    <line id="Line_2497" data-name="Line 2497" x2="6" transform="translate(1113.5 223.636)" fill="none" stroke="#fff" stroke-width="1"/>
    <line id="Line_2498" data-name="Line 2498" x2="6" transform="translate(1113.5 227.036)" fill="none" stroke="#fff" stroke-width="1"/>
    <g id="user" transform="translate(1122.743 223.068)">
      <path id="Path_3393" data-name="Path 3393" d="M89.12,4.177A2.021,2.021,0,0,0,90.6,3.565a2.021,2.021,0,0,0,.612-1.477A2.021,2.021,0,0,0,90.6.612a2.088,2.088,0,0,0-2.953,0,2.021,2.021,0,0,0-.612,1.477,2.021,2.021,0,0,0,.612,1.477A2.022,2.022,0,0,0,89.12,4.177ZM88,.971a1.58,1.58,0,0,1,2.235,0A1.51,1.51,0,0,1,90.7,2.089a1.51,1.51,0,0,1-.463,1.117,1.58,1.58,0,0,1-2.235,0,1.51,1.51,0,0,1-.463-1.117A1.51,1.51,0,0,1,88,.971Zm0,0" transform="translate(-85.558 0)" fill="#fff" stroke="#fff" stroke-width="0.2"/>
      <path id="Path_3394" data-name="Path 3394" d="M7.217,249.8a5.158,5.158,0,0,0-.07-.548,4.317,4.317,0,0,0-.135-.551,2.723,2.723,0,0,0-.227-.514,1.937,1.937,0,0,0-.341-.445,1.506,1.506,0,0,0-.491-.308,1.7,1.7,0,0,0-.626-.113.635.635,0,0,0-.339.144l-.354.228a2.026,2.026,0,0,1-.458.2,1.776,1.776,0,0,1-1.119,0,2.02,2.02,0,0,1-.457-.2l-.354-.228a.635.635,0,0,0-.339-.144,1.693,1.693,0,0,0-.626.113,1.5,1.5,0,0,0-.491.308,1.937,1.937,0,0,0-.341.445,2.729,2.729,0,0,0-.226.514,4.329,4.329,0,0,0-.135.551,5.126,5.126,0,0,0-.07.548c-.012.166-.017.338-.017.512A1.44,1.44,0,0,0,.427,251.4a1.539,1.539,0,0,0,1.1.4H5.7a1.539,1.539,0,0,0,1.1-.4,1.439,1.439,0,0,0,.428-1.089c0-.175-.006-.347-.018-.512Zm-.761,1.233a1.036,1.036,0,0,1-.752.262H1.529a1.036,1.036,0,0,1-.752-.262.94.94,0,0,1-.27-.721c0-.163.005-.323.016-.477a4.62,4.62,0,0,1,.064-.493,3.818,3.818,0,0,1,.118-.486,2.22,2.22,0,0,1,.184-.418,1.436,1.436,0,0,1,.251-.329,1,1,0,0,1,.326-.2,1.17,1.17,0,0,1,.4-.077c.018.01.049.028.1.061l.358.231a2.518,2.518,0,0,0,.574.257,2.284,2.284,0,0,0,1.432,0,2.519,2.519,0,0,0,.575-.257l.358-.231c.051-.033.083-.052.1-.061a1.17,1.17,0,0,1,.4.077,1,1,0,0,1,.326.2,1.431,1.431,0,0,1,.251.329,2.212,2.212,0,0,1,.184.418,3.806,3.806,0,0,1,.119.486,4.66,4.66,0,0,1,.064.494h0c.011.153.016.314.016.477a.94.94,0,0,1-.27.721Zm0,0" transform="translate(0 -243.128)" fill="#fff" stroke="#fff" stroke-width="0.2"/>
    </g>
    <line id="Line_2499" data-name="Line 2499" x2="6" transform="translate(1113.5 230.436)" fill="none" stroke="#fff" stroke-width="1"/>
  </g>
</svg>
