<svg id="fi-rr-sign-out_1" data-name="fi-rr-sign-out 1" xmlns="http://www.w3.org/2000/svg" xmlns:xlink="http://www.w3.org/1999/xlink" width="29" height="29" viewBox="0 0 29 29">
  <defs>
    <clipPath id="clip-path">
      <rect id="fi-rr-sign-out_1_Background_Mask_" data-name="fi-rr-sign-out 1 (Background/Mask)" width="29" height="29" fill="none"/>
    </clipPath>
  </defs>
  <rect id="fi-rr-sign-out_1_Background_Mask_2" data-name="fi-rr-sign-out 1 (Background/Mask)" width="29" height="29" fill="none"/>
  <g id="fi-rr-sign-out_1-2" data-name="fi-rr-sign-out 1" clip-path="url(#clip-path)">
    <path id="Vector" d="M6.042,26.583a3.625,3.625,0,0,1-3.625-3.625V6.042A3.625,3.625,0,0,1,6.042,2.417H8.458A1.208,1.208,0,0,0,8.458,0H6.042A6.049,6.049,0,0,0,0,6.042V22.958A6.049,6.049,0,0,0,6.042,29H8.458a1.208,1.208,0,0,0,0-2.417Z" fill="#f54468"/>
    <path id="Vector-2" data-name="Vector" d="M21.9,11.006a3.633,3.633,0,0,0,0-5.126L16.358.339A1.208,1.208,0,0,0,14.65,2.048l5.186,5.187H1.208a1.208,1.208,0,0,0,0,2.417H19.837L14.65,14.839a1.208,1.208,0,1,0,1.709,1.709h0Z" transform="translate(6.042 6.057)" fill="#f54468"/>
  </g>
</svg>
