<svg xmlns="http://www.w3.org/2000/svg" width="43.35" height="52.042" viewBox="0 0 43.35 52.042">
  <g id="_09-timer" data-name="09-timer" transform="translate(-8)" opacity="0.68">
    <path id="Path_3462" data-name="Path 3462" d="M45.432,15.485l3.115-3.115L45.482,9.3,42.15,12.636A21.538,21.538,0,0,0,31.842,8.778V4.335h4.335V0h-13V4.335h4.335V8.778A21.538,21.538,0,0,0,17.2,12.636L13.867,9.3,10.8,12.37l3.115,3.115a21.675,21.675,0,1,0,31.515,0Zm-15.758,32.2a17.34,17.34,0,1,1,17.34-17.34,17.34,17.34,0,0,1-17.34,17.34Z" fill="#a2a2c2"/>
    <path id="Path_3463" data-name="Path 3463" d="M37,32V45H24A13,13,0,1,0,37,32Z" transform="translate(-7.33 -14.66)" fill="#a2a2c2"/>
  </g>
</svg>
