<svg xmlns="http://www.w3.org/2000/svg" width="27.814" height="25.914" viewBox="0 0 27.814 25.914">
  <g id="Group_1558" data-name="Group 1558" transform="translate(0.128 0.1)">
    <path id="Path_3406" data-name="Path 3406" d="M201.94,153.923l.266,0A12.312,12.312,0,0,0,214.5,141.89l-2.291-.049a10.018,10.018,0,0,1-10,9.792l-.217,0a9.99,9.99,0,0,1-8.593-5.248l2.176.478.491-2.238-4.787-1.051a1.145,1.145,0,0,0-1.325.734l-1.649,4.615,2.158.771.844-2.363A12.277,12.277,0,0,0,201.94,153.923Z" transform="translate(-188.302 -128.211)" fill="#df8597" stroke="#df8597" stroke-width="0.2"/>
    <path id="Path_3407" data-name="Path 3407" d="M200.86,141.844l-.266,0A12.312,12.312,0,0,0,188.3,153.877l2.291.049a10.018,10.018,0,0,1,10-9.792l.217,0a9.99,9.99,0,0,1,8.593,5.248l-2.176-.478-.491,2.238,4.787,1.051a1.145,1.145,0,0,0,1.325-.734l1.649-4.615-2.158-.771-.845,2.363A12.277,12.277,0,0,0,200.86,141.844Z" transform="translate(-186.939 -141.842)" fill="#df8597" stroke="#df8597" stroke-width="0.2"/>
    <g id="rupee-indian" transform="translate(10.081 7.06)">
      <path id="Path_3408" data-name="Path 3408" d="M80.126,2.627a.256.256,0,0,0-.189-.074H78.529A2.85,2.85,0,0,0,78,1.367H79.92a.253.253,0,0,0,.263-.263V.263A.253.253,0,0,0,79.92,0H73.069a.254.254,0,0,0-.263.263v1.1a.267.267,0,0,0,.263.263h1.194q1.737,0,2.207.93h-3.4a.254.254,0,0,0-.263.263v.84a.254.254,0,0,0,.263.263h3.516a1.609,1.609,0,0,1-.844,1.029,3.716,3.716,0,0,1-1.75.354h-.922a.267.267,0,0,0-.263.263V6.612a.246.246,0,0,0,.074.181q1.581,1.68,4.1,4.7a.243.243,0,0,0,.206.1h1.606a.239.239,0,0,0,.239-.148.225.225,0,0,0-.033-.28q-2.4-2.948-3.779-4.414a4.176,4.176,0,0,0,2.273-.906,3.078,3.078,0,0,0,1.062-1.927h1.383a.254.254,0,0,0,.263-.263v-.84A.256.256,0,0,0,80.126,2.627Z" transform="translate(-72.806)" fill="#df8597" stroke="#df8597" stroke-width="0.2"/>
    </g>
  </g>
</svg>
