<svg id="Group_511" data-name="Group 511" xmlns="http://www.w3.org/2000/svg" width="25.743" height="25.744" viewBox="0 0 25.743 25.744">
  <path id="Path_969" data-name="Path 969" d="M414.232,477.785h0a12.872,12.872,0,0,1-12.871-12.871h0a12.872,12.872,0,0,1,12.871-12.872h0A12.872,12.872,0,0,1,427.1,464.914h0A12.872,12.872,0,0,1,414.232,477.785Z" transform="translate(-401.361 -452.042)" fill="#29a9e1"/>
  <path id="Path_970" data-name="Path 970" d="M408.158,470.174a8,8,0,0,0,12.312-7.106,5.708,5.708,0,0,0,1.4-1.456,5.627,5.627,0,0,1-1.616.442A2.818,2.818,0,0,0,421.5,460.5a5.641,5.641,0,0,1-1.787.684,2.816,2.816,0,0,0-4.8,2.566,7.986,7.986,0,0,1-5.8-2.941,2.819,2.819,0,0,0,.871,3.758,2.816,2.816,0,0,1-1.276-.353,2.818,2.818,0,0,0,2.258,2.8,2.82,2.82,0,0,1-1.27.048,2.816,2.816,0,0,0,2.628,1.954A5.651,5.651,0,0,1,408.158,470.174Z" transform="translate(-402.145 -452.994)" fill="#fff"/>
</svg>
