<svg xmlns="http://www.w3.org/2000/svg" width="21.366" height="25.51" viewBox="0 0 21.366 25.51">
  <g id="user" transform="translate(0.25 0.25)">
    <path id="Path_3400" data-name="Path 3400" d="M93.056,12.048a5.829,5.829,0,0,0,4.259-1.765A5.829,5.829,0,0,0,99.08,6.024a5.829,5.829,0,0,0-1.765-4.259,6.023,6.023,0,0,0-8.518,0,5.829,5.829,0,0,0-1.765,4.259A5.829,5.829,0,0,0,88.8,10.283,5.831,5.831,0,0,0,93.056,12.048ZM89.833,2.8a4.557,4.557,0,0,1,6.446,0,4.355,4.355,0,0,1,1.335,3.223,4.355,4.355,0,0,1-1.335,3.223,4.556,4.556,0,0,1-6.445,0A4.354,4.354,0,0,1,88.5,6.024,4.354,4.354,0,0,1,89.833,2.8Zm0,0" transform="translate(-82.78 0)" fill="#df8597" stroke="#df8597" stroke-width="0.5"/>
    <path id="Path_3401" data-name="Path 3401" d="M20.815,254.467a14.878,14.878,0,0,0-.2-1.58,12.45,12.45,0,0,0-.389-1.589,7.848,7.848,0,0,0-.653-1.482,5.586,5.586,0,0,0-.985-1.284,4.342,4.342,0,0,0-1.415-.889,4.89,4.89,0,0,0-1.806-.327,1.833,1.833,0,0,0-.979.415c-.293.191-.637.413-1.02.658a5.844,5.844,0,0,1-1.32.581,5.124,5.124,0,0,1-3.228,0,5.827,5.827,0,0,1-1.319-.581c-.38-.243-.723-.464-1.021-.658a1.831,1.831,0,0,0-.979-.415,4.884,4.884,0,0,0-1.806.327,4.339,4.339,0,0,0-1.415.889,5.587,5.587,0,0,0-.985,1.283A7.863,7.863,0,0,0,.641,251.3a12.481,12.481,0,0,0-.388,1.589,14.777,14.777,0,0,0-.2,1.581c-.033.478-.05.975-.05,1.477a4.153,4.153,0,0,0,1.233,3.142,4.44,4.44,0,0,0,3.178,1.159H16.454a4.44,4.44,0,0,0,3.178-1.159,4.151,4.151,0,0,0,1.234-3.142c0-.5-.017-1-.051-1.477Zm-2.194,3.557a2.989,2.989,0,0,1-2.168.755H4.412a2.989,2.989,0,0,1-2.168-.755,2.712,2.712,0,0,1-.778-2.08c0-.469.015-.931.046-1.376a13.328,13.328,0,0,1,.183-1.423,11.007,11.007,0,0,1,.342-1.4,6.4,6.4,0,0,1,.532-1.2,4.141,4.141,0,0,1,.724-.949,2.881,2.881,0,0,1,.941-.585,3.373,3.373,0,0,1,1.154-.223c.051.027.143.079.291.176.3.2.649.42,1.032.666a7.262,7.262,0,0,0,1.656.74,6.589,6.589,0,0,0,4.13,0,7.269,7.269,0,0,0,1.657-.741c.393-.251.73-.469,1.032-.665.148-.1.239-.149.291-.176a3.376,3.376,0,0,1,1.155.223,2.885,2.885,0,0,1,.941.585,4.13,4.13,0,0,1,.724.949,6.38,6.38,0,0,1,.532,1.2,10.982,10.982,0,0,1,.342,1.4,13.443,13.443,0,0,1,.183,1.424h0c.031.443.047.9.047,1.375a2.712,2.712,0,0,1-.779,2.08Zm0,0" transform="translate(0 -235.236)" fill="#df8597" stroke="#df8597" stroke-width="0.5"/>
  </g>
</svg>
