<svg id="Group_510" data-name="Group 510" xmlns="http://www.w3.org/2000/svg" width="25.744" height="25.743" viewBox="0 0 25.744 25.743">
  <path id="Path_966" data-name="Path 966" d="M372.607,477.322h0a12.872,12.872,0,0,1-12.872-12.871h0a12.872,12.872,0,0,1,12.872-12.871h0a12.872,12.872,0,0,1,12.871,12.871h0A12.872,12.872,0,0,1,372.607,477.322Z" transform="translate(-359.735 -451.579)" fill="#c3271a"/>
  <g id="Group_509" data-name="Group 509" transform="translate(2.571 5.614)">
    <path id="Path_967" data-name="Path 967" d="M382.813,460.191a2.59,2.59,0,0,0-1.821-1.834c-1.607-.433-8.049-.433-8.049-.433s-6.443,0-8.05.433a2.589,2.589,0,0,0-1.821,1.834,29.184,29.184,0,0,0,0,9.982,2.589,2.589,0,0,0,1.821,1.834c1.607.433,8.05.433,8.05.433s6.442,0,8.049-.433a2.589,2.589,0,0,0,1.821-1.834,29.125,29.125,0,0,0,0-9.982Z" transform="translate(-362.641 -457.925)" fill="#fff"/>
    <path id="Path_968" data-name="Path 968" d="M371.9,468.793v-6.127l5.385,3.063Z" transform="translate(-363.71 -458.472)" fill="#c3271a"/>
  </g>
</svg>
