<svg xmlns="http://www.w3.org/2000/svg" width="257.024" height="31.066" viewBox="0 0 257.024 31.066">
  <g id="logo.cec94760" transform="translate(-5 -3.931)">
    <g id="Group_1574" data-name="Group 1574" transform="translate(5 3.931)">
      <g id="Group_1572" data-name="Group 1572" transform="translate(17.69)">
        <path id="Path_3451" data-name="Path 3451" d="M54.765,11.484a35.3,35.3,0,0,1,4.688,8.2V3.931H46.077A27.674,27.674,0,0,1,54.765,11.484Z" transform="translate(-46.077 -3.931)" fill="#387ed1" fill-rule="evenodd"/>
      </g>
      <g id="Group_1573" data-name="Group 1573" transform="translate(0 1.678)">
        <path id="Path_3452" data-name="Path 3452" d="M12.094,7.828A17.554,17.554,0,0,0,5,9.338V37.216H34.7c-.23-16.259-10.282-29.388-22.6-29.388" transform="translate(-5 -7.828)" fill="#387ed1" fill-rule="evenodd"/>
      </g>
    </g>
    <g id="Group_1575" data-name="Group 1575" transform="translate(53.813 5.243)">
      <path id="Path_3453" data-name="Path 3453" d="M118.349,32.567l16.594-20.09H118.871V8.1h22.5v3.656l-16.594,20.09h16.594v4.379H118.349Z" transform="translate(-118.349 -7.615)" fill="#387ed1"/>
      <path id="Path_3454" data-name="Path 3454" d="M186.177,8.1H206.99v4.46H191.079V19.79h14.1v4.46h-14.1v7.513h16.112v4.46H186.177Z" transform="translate(-156.967 -7.615)" fill="#387ed1"/>
      <path id="Path_3455" data-name="Path 3455" d="M248.688,8.1h12.536a13.754,13.754,0,0,1,4.7.743,9.457,9.457,0,0,1,3.415,2.069,8.151,8.151,0,0,1,1.728,2.692,9.12,9.12,0,0,1,.6,3.375v.081a9.1,9.1,0,0,1-.5,3.114,8.163,8.163,0,0,1-1.387,2.451,8.325,8.325,0,0,1-2.109,1.808,10.431,10.431,0,0,1-2.712,1.145l7.594,10.648h-5.826l-6.932-9.8H253.59v9.8h-4.9V8.1ZM260.846,22.04a6.529,6.529,0,0,0,4.231-1.271,4.2,4.2,0,0,0,1.573-3.45v-.081a4.153,4.153,0,0,0-1.533-3.491,6.885,6.885,0,0,0-4.312-1.19H253.59V22.04h7.256Z" transform="translate(-192.558 -7.615)" fill="#387ed1"/>
      <path id="Path_3456" data-name="Path 3456" d="M327.92,36.068a15.039,15.039,0,0,1-5.946-1.145,14.106,14.106,0,0,1-4.621-3.114,14.253,14.253,0,0,1-3.013-4.6,14.54,14.54,0,0,1-1.086-5.605v-.081a14.551,14.551,0,0,1,1.086-5.605,14.17,14.17,0,0,1,3.053-4.621A14.658,14.658,0,0,1,328,6.977a15.042,15.042,0,0,1,5.947,1.145,14.134,14.134,0,0,1,4.621,3.114,14.293,14.293,0,0,1,3.013,4.6,14.541,14.541,0,0,1,1.086,5.6v.081a14.543,14.543,0,0,1-1.086,5.6,14.188,14.188,0,0,1-3.053,4.621,14.661,14.661,0,0,1-10.608,4.32Zm.081-4.54a9.194,9.194,0,0,0,3.82-.783,9.058,9.058,0,0,0,2.981-2.129,9.871,9.871,0,0,0,1.94-3.154,10.587,10.587,0,0,0,.7-3.857v-.081a10.75,10.75,0,0,0-.7-3.878,9.64,9.64,0,0,0-1.961-3.174,9.486,9.486,0,0,0-3.021-2.15,9.3,9.3,0,0,0-10.642,2.109,9.875,9.875,0,0,0-1.941,3.154,10.586,10.586,0,0,0-.7,3.857v.081a10.74,10.74,0,0,0,.7,3.877,9.628,9.628,0,0,0,1.962,3.175,9.465,9.465,0,0,0,3.021,2.149A9.143,9.143,0,0,0,328,31.527Z" transform="translate(-229.32 -6.977)" fill="#387ed1"/>
      <path id="Path_3457" data-name="Path 3457" d="M395.451,8.1h10.488a16.638,16.638,0,0,1,6.048,1.065,14.283,14.283,0,0,1,4.741,2.953,13.165,13.165,0,0,1,3.074,4.44,13.97,13.97,0,0,1,1.085,5.525v.081a14.108,14.108,0,0,1-1.085,5.545,13.1,13.1,0,0,1-3.074,4.46,14.52,14.52,0,0,1-4.741,2.973,16.355,16.355,0,0,1-6.048,1.085H395.451ZM405.9,31.764a10.954,10.954,0,0,0,4.018-.706,8.78,8.78,0,0,0,3.074-1.976,8.969,8.969,0,0,0,1.969-3.027,10.161,10.161,0,0,0,.7-3.813v-.081a10.316,10.316,0,0,0-.7-3.833,8.733,8.733,0,0,0-5.042-5.044,10.694,10.694,0,0,0-4.018-.726h-5.545V31.763H405.9Z" transform="translate(-276.118 -7.615)" fill="#387ed1"/>
      <path id="Path_3458" data-name="Path 3458" d="M468.414,8.1h4.9V19.79h13.5V8.1h4.9V36.224h-4.9V24.371h-13.5V36.223h-4.9Z" transform="translate(-317.66 -7.615)" fill="#387ed1"/>
      <path id="Path_3459" data-name="Path 3459" d="M546.1,7.631h4.581l12.375,28.327h-5.223l-2.853-6.79h-13.3l-2.894,6.79h-5.063Zm7.072,17.157L548.31,13.538l-4.822,11.251Z" transform="translate(-354.845 -7.349)" fill="#387ed1"/>
    </g>
  </g>
</svg>
